<svg xmlns="http://www.w3.org/2000/svg" version="1.1" xmlns:xlink="http://www.w3.org/1999/xlink" xmlns:svgjs="http://svgjs.dev/svgjs" width="128" height="128" viewBox="0 0 128 128"><g transform="matrix(0.8046875,0,0,0.8046875,12.333870967741937,22.798237213169784)"><svg viewBox="0 0 155 124" data-background-color="#ffffff" preserveAspectRatio="xMidYMid meet" height="102" width="128" xmlns="http://www.w3.org/2000/svg" xmlns:xlink="http://www.w3.org/1999/xlink"><g id="tight-bounds" transform="matrix(1,0,0,1,0.25,0.24580039525691433)"><svg viewBox="0 0 154.5 123.50839920948617" height="123.50839920948617" width="154.5"><g><svg viewBox="0 0 154.5 123.50839920948617" height="123.50839920948617" width="154.5"><g><svg viewBox="0 0 154.5 123.50839920948617" height="123.50839920948617" width="154.5"><g id="textblocktransform"><svg viewBox="0 0 154.5 123.50839920948617" height="123.50839920948617" width="154.5" id="textblock"><g><svg viewBox="0 0 154.5 123.50839920948617" height="123.50839920948617" width="154.5"><g transform="matrix(1,0,0,1,0,0)"><svg width="154.5" viewBox="-2.55 -30.95 50.599999999999994 40.45" height="123.50839920948617" data-palette-color="#7f8cd9"><path d="M48.05 3.8L48.05 3.8Q48.05 6.4 44.85 8.1L44.85 8.1Q42.2 9.5 39.13 9.5 36.05 9.5 32.35 7.93 28.65 6.35 23.35 3.45 18.05 0.55 16.1-0.3L16.1-0.3Q13.15 3.1 10.28 4.93 7.4 6.75 3.6 6.75L3.6 6.75Q1.55 6.75-0.5 5.3-2.55 3.85-2.55 1.9L-2.55 1.9Q-2.55-0.85 0.2-2.25L0.2-2.25Q2.4-3.4 5.45-3.4 8.5-3.4 13.15-1.95L13.15-1.95Q14.7-4.05 16.4-7.25L16.4-7.25Q16.05-7.2 15.3-7.2L15.3-7.2Q4.8-7.2 4.8-14.65L4.8-14.65Q4.8-18.6 9-20.85L9-20.85Q9.2-21 9.38-21 9.55-21 9.55-20.88 9.55-20.75 9.5-20.7L9.5-20.7Q6.35-19.55 6.35-15.93 6.35-12.3 9.85-10.05L9.85-10.05Q12.85-8.1 16.8-8.05L16.8-8.05Q17.9-10.1 20.6-15.9 23.3-21.7 25.15-24.45L25.15-24.45Q29.5-30.95 34.45-30.95L34.45-30.95Q35-30.95 35-30.8 35-30.65 34.45-30.65L34.45-30.65Q29.7-30.65 25.4-23.95L25.4-23.95Q24-21.7 21.2-15.73 18.4-9.75 17.5-8.05L17.5-8.05Q19.1-8.05 20.75-8.35L20.75-8.35Q21.1-8.75 22.2-11.35L22.2-11.35Q23.15-13.9 23.45-14.55L23.45-14.55Q30.45-30.55 39.05-30.55L39.05-30.55Q40.8-30.55 41.85-29.35 42.9-28.15 42.9-26.3L42.9-26.3Q42.9-18.85 26.6-10.5L26.6-10.5Q24.5-9.4 23.83-9.13 23.15-8.85 22.9-8.7L22.9-8.7Q22.5-8.5 21.35-8L21.35-8Q20.95-7.3 19.43-4.93 17.9-2.55 16.7-0.95L16.7-0.95 29.55 4.05Q37.45 7.05 42.48 7.05 47.5 7.05 47.5 4.2L47.5 4.2Q47.5 2.35 45.8-0.25L45.8-0.25Q46.7 0.3 47.3 1.5L47.3 1.5Q48.05 2.75 48.05 3.8ZM42.35-27L42.35-27Q42.35-28.1 41.48-28.6 40.6-29.1 39.4-29.1L39.4-29.1Q33.8-29.1 25.5-14.85L25.5-14.85Q23.05-10.65 21.8-8.7L21.8-8.7Q26.65-10.4 34-16.35L34-16.35Q42.35-23.1 42.35-27ZM4.25 3.9L4.25 3.9Q3.55 3.9 3.55 3.73 3.55 3.55 4.25 3.55L4.25 3.55Q8.9 3.55 12.8-1.55L12.8-1.55Q8.2-3.05 5.63-3.05 3.05-3.05 0.75-2-1.55-0.95-1.55 1.07-1.55 3.1 0.4 4.35L0.4 4.35Q1.95 5.45 4.35 5.45 6.75 5.45 10.4 3.55 14.05 1.65 15.55-0.45L15.55-0.45Q14.85-0.9 13.35-1.4L13.35-1.4Q9.25 3.9 4.25 3.9ZM20.4-7.65L20.4-7.65Q18.05-7.35 17.1-7.3L17.1-7.3Q15.5-4.4 13.7-1.8L13.7-1.8Q14.2-1.6 15.95-1.1L15.95-1.1Q16.65-1.8 20.4-7.65Z" opacity="1" transform="matrix(1,0,0,1,0,0)" fill="#ffffff" class="wordmark-text-0" data-fill-palette-color="primary" id="text-0"></path></svg></g></svg></g></svg></g></svg></g></svg></g><defs></defs></svg><rect width="154.5" height="123.50839920948617" fill="none" stroke="none" visibility="hidden"></rect></g></svg></g></svg>